<svg xmlns="http://www.w3.org/2000/svg" viewBox="0 0 64 64" fill="none" role="img" aria-label="Psi Real">
  <!-- Tree canopy (champagne gold) -->
  <circle cx="32" cy="11" r="5.5" fill="#C9A961"/>
  <circle cx="25" cy="14" r="4" fill="#C9A961"/>
  <circle cx="39" cy="14" r="4" fill="#C9A961"/>
  <circle cx="28" cy="8" r="3.2" fill="#C9A961"/>
  <circle cx="36" cy="8" r="3.2" fill="#C9A961"/>
  <circle cx="32" cy="16" r="3.2" fill="#C9A961"/>

  <!-- Trunk (lilac) -->
  <path d="M32 22 V18" stroke="#9B8DB8" stroke-width="3" stroke-linecap="round"/>

  <!-- Brain silhouette (lilac) -->
  <path d="
    M14 40
    C14 30, 22 23, 32 23
    C42 23, 50 30, 50 40
    C50 49, 43 55, 35 55
    L29 55
    C21 55, 14 49, 14 40
    Z"
    fill="#9B8DB8"/>

  <!-- Brain folds (soft white highlights) -->
  <path d="M21 36 C24 33, 28 33, 31 36" stroke="#FFFFFF" stroke-width="1.6" stroke-linecap="round" fill="none" opacity="0.55"/>
  <path d="M33 36 C36 33, 40 33, 43 36" stroke="#FFFFFF" stroke-width="1.6" stroke-linecap="round" fill="none" opacity="0.55"/>
  <path d="M24 45 C28 42, 36 42, 40 45" stroke="#FFFFFF" stroke-width="1.6" stroke-linecap="round" fill="none" opacity="0.55"/>
  <path d="M32 23 V36" stroke="#FFFFFF" stroke-width="1.4" stroke-linecap="round" opacity="0.45"/>
</svg>
